<svg width="1200" height="520" viewBox="0 0 1200 520" xmlns="http://www.w3.org/2000/svg" role="img" aria-labelledby="title desc">
  <title id="title">Voxtral privacy banner</title>
  <desc id="desc">Minimal hero graphic highlighting Voxtral's on-device privacy benefits.</desc>
  <defs>
    <linearGradient id="bg" x1="0%" y1="0%" x2="100%" y2="100%">
      <stop offset="0%" stop-color="#FFF9EF"/>
      <stop offset="50%" stop-color="#F5F2FF"/>
      <stop offset="100%" stop-color="#ECF1FF"/>
    </linearGradient>
    <linearGradient id="wave" x1="0%" y1="0%" x2="100%" y2="0%">
      <stop offset="0%" stop-color="#F5B16E" stop-opacity="0.9"/>
      <stop offset="100%" stop-color="#CDB8FF" stop-opacity="0.8"/>
    </linearGradient>
    <linearGradient id="pill" x1="0%" y1="0%" x2="0%" y2="100%">
      <stop offset="0%" stop-color="rgba(26,24,68,0.08)"/>
      <stop offset="100%" stop-color="rgba(26,24,68,0.02)"/>
    </linearGradient>
  </defs>
  <rect width="1200" height="520" rx="48" fill="url(#bg)"/>
  <g opacity="0.3">
    <circle cx="180" cy="110" r="80" fill="#FFEED8"/>
    <circle cx="460" cy="70" r="60" fill="#FDE3BA"/>
    <circle cx="1020" cy="420" r="120" fill="#E7E8FF"/>
  </g>
  <path d="M0 370 C200 350 300 410 520 390 C720 372 820 430 1020 410 C1130 398 1180 420 1200 430 L1200 520 L0 520 Z" fill="url(#wave)" opacity="0.55"/>
  <g transform="translate(120 120)" font-family="'Inter','Segoe UI',sans-serif" fill="#1A1844">
    <text font-size="20" letter-spacing="0.2em" fill="#5D5C76">SIMPLY BASTIAAN · LOCAL-FIRST TRANSCRIPTION</text>
    <text y="120" font-size="84" font-weight="700">Record. Transcribe. Save time.</text>
  </g>
  <g transform="translate(120 280)" font-family="'Inter','Segoe UI',sans-serif" fill="#1A1844" font-size="26">
    <text>On-device application</text>
    <text x="360">Full data ownership</text>
    <text x="720">No cloud, ever</text>
  </g>
  <g transform="translate(120 360)" font-family="'Space Mono','Fira Code',monospace">
    <rect width="360" height="62" rx="20" fill="url(#pill)" stroke="rgba(26,24,68,0.12)"/>
    <text x="26" y="40" font-size="24" fill="#1A1844">$ python transcribe_voxtral.py</text>
  </g>
</svg>
